<svg id="Слой_1" data-name="Слой 1" xmlns="http://www.w3.org/2000/svg" viewBox="0 0 413.44 519.8"><defs><style>.cls-1{fill:none;stroke:#706f6f;stroke-miterlimit:10;}.cls-2{fill:#3aaa35;}.cls-3{font-size:12.25px;fill:#fff;font-family:Montserrat-Bold, Montserrat;font-weight:700;}.cls-4{fill:#e30613;}.cls-5{fill:#1d1d1b;}</style></defs><circle class="cls-1" cx="81.5" cy="81.5" r="81"/><circle class="cls-2" cx="81.5" cy="81.5" r="6.88"/><text class="cls-3" transform="translate(77.83 85.57)">+</text><circle class="cls-4" cx="125.35" cy="13.24" r="6.88"/><text class="cls-3" transform="translate(123.01 16.82)">-</text><circle class="cls-1" cx="331.94" cy="81.5" r="81"/><circle class="cls-2" cx="331.94" cy="81.5" r="6.88"/><text class="cls-3" transform="translate(328.27 85.57)">+</text><circle class="cls-4" cx="375.8" cy="13.24" r="6.88"/><text class="cls-3" transform="translate(373.45 16.82)">-</text><rect class="cls-5" x="262.54" y="315.18" width="0.5" height="99.06" transform="translate(-273.61 129.68) rotate(-45)"/><rect class="cls-5" x="332.24" y="315.18" width="0.5" height="99.06" transform="translate(262.58 -291.24) rotate(45)"/><rect class="cls-5" x="204.7" y="236.13" width="0.5" height="99.06"/><rect class="cls-5" x="290.24" y="480.85" width="0.5" height="20.06" transform="translate(-354.71 186.23) rotate(-45)"/><rect class="cls-5" x="304.54" y="480.85" width="0.5" height="20.06" transform="translate(343.68 -234.7) rotate(45)"/><circle class="cls-1" cx="137.47" cy="438.3" r="81"/><circle class="cls-2" cx="137.47" cy="438.3" r="6.88"/><text class="cls-3" transform="translate(133.8 442.38)">+</text><circle class="cls-1" cx="262.32" cy="438.3" r="81"/><circle class="cls-2" cx="262.32" cy="438.3" r="6.88"/><text class="cls-3" transform="translate(258.65 442.38)">+</text><circle class="cls-4" cx="199.9" cy="490.2" r="6.88"/><text class="cls-3" transform="translate(197.55 493.78)">-</text><circle class="cls-4" cx="199.9" cy="386.56" r="6.88"/><text class="cls-3" transform="translate(197.55 390.13)">-</text></svg>