<svg id="Слой_1" data-name="Слой 1" xmlns="http://www.w3.org/2000/svg" xmlns:xlink="http://www.w3.org/1999/xlink" viewBox="0 0 604.82 402"><defs><style>.cls-1{fill:url(#Безымянный_градиент_7);}.cls-2{fill:#9d9d9c;}.cls-3{fill:#1d1d1b;}</style><radialGradient id="Безымянный_градиент_7" cx="201" cy="201" r="201" gradientUnits="userSpaceOnUse"><stop offset="0" stop-color="#fff"/><stop offset="0.18" stop-color="#dbdbdb"/><stop offset="0.85" stop-color="#575756"/><stop offset="0.87" stop-color="#646463"/><stop offset="0.9" stop-color="#868685"/><stop offset="0.95" stop-color="#bdbdbc"/><stop offset="1" stop-color="#fff"/></radialGradient></defs><circle class="cls-1" cx="201" cy="201" r="201"/><circle class="cls-2" cx="201" cy="201" r="14.17"/><path class="cls-3" d="M326.24,409h-1v-4.47h-1.54a1.47,1.47,0,0,0-1,.39,3.12,3.12,0,0,0-.78,1.09l-1.35,3h-1.16l1.58-3.3a3.54,3.54,0,0,1,.58-.88,1.91,1.91,0,0,1,.72-.52v0a2.91,2.91,0,0,1-1.78-.94,3.1,3.1,0,0,1,.28-4.07,3.84,3.84,0,0,1,2.56-.77h2.87Zm-1-5.34v-4.28h-1.81a2.86,2.86,0,0,0-1.86.54,2.23,2.23,0,0,0,0,3.17,2.81,2.81,0,0,0,1.89.57Z" transform="translate(-100.96 -213.21)"/><path class="cls-3" d="M327.86,411v-2.83h.7a6.39,6.39,0,0,0,.8-2.12,13.88,13.88,0,0,0,.28-3v-1.56h4.51v6.69h1.13V411h-.82v-2h-5.78v2Zm5.35-2.83v-5.87h-2.68v.82a15.18,15.18,0,0,1-.25,2.89,7.37,7.37,0,0,1-.72,2.16Z" transform="translate(-100.96 -213.21)"/><path class="cls-3" d="M337.85,407.82h0v4.67h-.94v-11h.94V403h0a3,3,0,0,1,1.12-1.19,3,3,0,0,1,1.58-.42,2.73,2.73,0,0,1,2.25,1,4.13,4.13,0,0,1,.81,2.69,4.7,4.7,0,0,1-.92,3,3,3,0,0,1-2.47,1.15,2.79,2.79,0,0,1-1.38-.34A2.65,2.65,0,0,1,337.85,407.82Zm0-2.91v1a2.59,2.59,0,0,0,.65,1.76,2.22,2.22,0,0,0,1.71.73,2.13,2.13,0,0,0,1.79-.91,4.05,4.05,0,0,0,.67-2.46,3.21,3.21,0,0,0-.62-2.1,2,2,0,0,0-1.66-.77,2.28,2.28,0,0,0-1.86.8A2.9,2.9,0,0,0,337.82,404.91Z" transform="translate(-100.96 -213.21)"/><path class="cls-3" d="M348.58,409.21a3.41,3.41,0,0,1-2.64-1.07,4,4,0,0,1-1-2.79,4.08,4.08,0,0,1,1-2.94,3.64,3.64,0,0,1,2.72-1.07,3.27,3.27,0,0,1,2.58,1.05,4.77,4.77,0,0,1,0,5.74A3.42,3.42,0,0,1,348.58,409.21Zm.05-.81a2.39,2.39,0,0,0,1.94-.82,4.25,4.25,0,0,0,0-4.61,2.38,2.38,0,0,0-1.93-.81,2.49,2.49,0,0,0-2,.84,3.42,3.42,0,0,0-.73,2.33,3.29,3.29,0,0,0,.72,2.23A2.48,2.48,0,0,0,348.63,408.4Z" transform="translate(-100.96 -213.21)"/><path class="cls-3" d="M357.1,411.42h-.9a9,9,0,0,1-1.69-2.89,11.34,11.34,0,0,1,0-7.07,8.67,8.67,0,0,1,1.7-2.94h.9a9.52,9.52,0,0,0-1.73,3,10.52,10.52,0,0,0-.57,3.52,10.35,10.35,0,0,0,.56,3.42A9.64,9.64,0,0,0,357.1,411.42Z" transform="translate(-100.96 -213.21)"/><path class="cls-3" d="M363.55,409v-6.68h-4.13V409h-.94v-7.51h6V409Z" transform="translate(-100.96 -213.21)"/><path class="cls-3" d="M367.88,407.82h0v4.67h-.93v-11h.93V403h0a3,3,0,0,1,2.71-1.61,2.73,2.73,0,0,1,2.25,1,4.13,4.13,0,0,1,.81,2.69,4.7,4.7,0,0,1-.92,3,3,3,0,0,1-2.47,1.15,2.83,2.83,0,0,1-1.39-.34A2.8,2.8,0,0,1,367.88,407.82Zm0-2.91v1a2.55,2.55,0,0,0,.66,1.76,2.22,2.22,0,0,0,1.71.73,2.14,2.14,0,0,0,1.79-.91,4.05,4.05,0,0,0,.67-2.46,3.26,3.26,0,0,0-.62-2.1,2,2,0,0,0-1.67-.77,2.28,2.28,0,0,0-1.86.8A3,3,0,0,0,367.85,404.91Z" transform="translate(-100.96 -213.21)"/><path class="cls-3" d="M378.61,409.21a3.4,3.4,0,0,1-2.63-1.07,4,4,0,0,1-1-2.79,4,4,0,0,1,1-2.94,3.62,3.62,0,0,1,2.72-1.07,3.3,3.3,0,0,1,2.58,1.05,4.16,4.16,0,0,1,.94,2.88,4.06,4.06,0,0,1-1,2.86A3.41,3.41,0,0,1,378.61,409.21Zm.05-.81a2.43,2.43,0,0,0,1.95-.82,4.25,4.25,0,0,0,0-4.61,2.39,2.39,0,0,0-1.93-.81,2.46,2.46,0,0,0-2,.84,3.43,3.43,0,0,0-.74,2.33,3.24,3.24,0,0,0,.73,2.23A2.46,2.46,0,0,0,378.66,408.4Z" transform="translate(-100.96 -213.21)"/><path class="cls-3" d="M386.05,409h-.94v-6.68H382.8v-.83h5.56v.83h-2.31Z" transform="translate(-100.96 -213.21)"/><path class="cls-3" d="M392.53,409.21a3.38,3.38,0,0,1-2.63-1.07,4,4,0,0,1-1-2.79,4,4,0,0,1,1-2.94,3.6,3.6,0,0,1,2.71-1.07,3.3,3.3,0,0,1,2.59,1.05,4.16,4.16,0,0,1,.93,2.88,4.06,4.06,0,0,1-1,2.86A3.41,3.41,0,0,1,392.53,409.21Zm.05-.81a2.39,2.39,0,0,0,1.94-.82,4.19,4.19,0,0,0,0-4.61,2.36,2.36,0,0,0-1.92-.81,2.5,2.5,0,0,0-2,.84,3.42,3.42,0,0,0-.73,2.33,3.24,3.24,0,0,0,.73,2.23A2.44,2.44,0,0,0,392.58,408.4Z" transform="translate(-100.96 -213.21)"/><path class="cls-3" d="M398.05,409v-7.51H399v3.23h4.13v-3.23h.94V409h-.94v-3.46H399V409Z" transform="translate(-100.96 -213.21)"/><path class="cls-3" d="M406.35,411.42h-.89a9.78,9.78,0,0,0,1.7-3,10.1,10.1,0,0,0,.57-3.42,10.52,10.52,0,0,0-.57-3.52,9.69,9.69,0,0,0-1.72-3h.9a9,9,0,0,1,1.7,2.94,10.7,10.7,0,0,1,.56,3.57,10.36,10.36,0,0,1-.56,3.5A9,9,0,0,1,406.35,411.42Z" transform="translate(-100.96 -213.21)"/><path class="cls-3" d="M494.63,494.79a4.55,4.55,0,0,1-3.56-1.48,5.49,5.49,0,0,1-1.34-3.83,5.82,5.82,0,0,1,1.37-4.05,4.79,4.79,0,0,1,3.72-1.51,4.47,4.47,0,0,1,3.47,1.46,5.46,5.46,0,0,1,1.33,3.83,5.84,5.84,0,0,1-1.36,4.09A4.67,4.67,0,0,1,494.63,494.79Zm0-.89a3.71,3.71,0,0,0,2.9-1.19,4.89,4.89,0,0,0,1.07-3.36,5,5,0,0,0-1-3.35,3.93,3.93,0,0,0-5.7.07,5.54,5.54,0,0,0,0,6.6A3.53,3.53,0,0,0,494.63,493.9Z" transform="translate(-100.96 -213.21)"/><path class="cls-3" d="M507.3,483.44l.16.87a1.84,1.84,0,0,1-.59.26,9.07,9.07,0,0,1-1.19.26,7.78,7.78,0,0,0-1.56.37,2.39,2.39,0,0,0-.83.54,2.94,2.94,0,0,0-.68,1.18,6.58,6.58,0,0,0-.32,1.79h0a2.89,2.89,0,0,1,1.06-1,3.28,3.28,0,0,1,1.59-.38,2.83,2.83,0,0,1,2.34,1,4.18,4.18,0,0,1,.83,2.73,4,4,0,0,1-.92,2.73,3.13,3.13,0,0,1-2.49,1,3,3,0,0,1-2.55-1.23,5.64,5.64,0,0,1-.9-3.39,12.18,12.18,0,0,1,.34-3.17,4.12,4.12,0,0,1,1-1.87,3.22,3.22,0,0,1,1.18-.75,9.64,9.64,0,0,1,1.7-.44c.56-.1,1-.19,1.25-.26A2.09,2.09,0,0,0,507.3,483.44Zm-5,6.28c0,.13,0,.27,0,.43s0,.33,0,.48a4.13,4.13,0,0,0,.67,2.39,2.15,2.15,0,0,0,1.86,1,2.17,2.17,0,0,0,1.76-.79,3.27,3.27,0,0,0,.64-2.12,3.4,3.4,0,0,0-.63-2.19,2.15,2.15,0,0,0-1.77-.78,2.58,2.58,0,0,0-1.5.44A3.3,3.3,0,0,0,502.27,489.72Z" transform="translate(-100.96 -213.21)"/><path class="cls-3" d="M515.35,494.62h-.94v-6.7h-3v2.55a13.65,13.65,0,0,1-.17,2.53,2.5,2.5,0,0,1-.59,1.3,1.39,1.39,0,0,1-.53.36,2,2,0,0,1-.7.11l-.28,0-.26-.05.17-.8.14,0h.18a1.25,1.25,0,0,0,.36-.05.89.89,0,0,0,.29-.2,1.93,1.93,0,0,0,.39-1,16,16,0,0,0,.12-2.28v-3.26h4.78Z" transform="translate(-100.96 -213.21)"/><path class="cls-3" d="M523,494.62h-.94v-1.35h0a2.85,2.85,0,0,1-1,1.13,2.61,2.61,0,0,1-1.42.39,2.33,2.33,0,0,1-1.7-.61,2.05,2.05,0,0,1-.64-1.57,2.09,2.09,0,0,1,.64-1.58,3.53,3.53,0,0,1,2-.81l2.16-.31v-.21a2.23,2.23,0,0,0-.47-1.49,1.67,1.67,0,0,0-1.26-.47,3.06,3.06,0,0,0-1.18.22,3.25,3.25,0,0,0-1,.69l-.56-.58a4.08,4.08,0,0,1,1.29-.87,4.17,4.17,0,0,1,1.53-.28,2.58,2.58,0,0,1,2,.71,3,3,0,0,1,.66,2.1Zm-.94-3.19v-.74l-1.94.28a3.08,3.08,0,0,0-1.46.51,1.3,1.3,0,0,0-.44,1.06,1.37,1.37,0,0,0,.42,1.06,1.52,1.52,0,0,0,1.1.4,2.18,2.18,0,0,0,1.68-.72A2.67,2.67,0,0,0,522.06,491.43Z" transform="translate(-100.96 -213.21)"/><path class="cls-3" d="M530.42,494.19a3.83,3.83,0,0,1-2.15.6,3.4,3.4,0,0,1-2.54-1,3.83,3.83,0,0,1-1-2.77,4.17,4.17,0,0,1,1-2.95,3.53,3.53,0,0,1,2.74-1.14,4.07,4.07,0,0,1,1,.12,5.2,5.2,0,0,1,1,.38l-.39.73a3.4,3.4,0,0,0-.79-.31,3.58,3.58,0,0,0-.83-.09,2.52,2.52,0,0,0-2,.88,3.45,3.45,0,0,0-.74,2.28,3.22,3.22,0,0,0,.73,2.25,2.4,2.4,0,0,0,1.88.81,3.32,3.32,0,0,0,.83-.11,3.15,3.15,0,0,0,.82-.37Z" transform="translate(-100.96 -213.21)"/><path class="cls-3" d="M534.26,494.62h-.94v-6.69H531v-.82h5.56v.82h-2.31Z" transform="translate(-100.96 -213.21)"/><path class="cls-3" d="M537.93,494.62v-7.51h.94v2.75h2a2.7,2.7,0,0,1,1.89.61,2.24,2.24,0,0,1,.67,1.75,2.31,2.31,0,0,1-.68,1.77,2.65,2.65,0,0,1-1.88.63Zm.94-.83h1.91a1.77,1.77,0,0,0,1.25-.4,1.46,1.46,0,0,0,.44-1.15,1.49,1.49,0,0,0-.44-1.16,1.78,1.78,0,0,0-1.26-.4h-1.9Z" transform="translate(-100.96 -213.21)"/><path class="cls-3" d="M549.3,494.62v-7.51h.94v3.22h4.13v-3.22h.94v7.51h-.94v-3.46h-4.13v3.46Z" transform="translate(-100.96 -213.21)"/><path class="cls-3" d="M563,494.62H562v-1.35h0a2.9,2.9,0,0,1-1,1.13,2.67,2.67,0,0,1-1.43.39,2.33,2.33,0,0,1-1.7-.61,2.05,2.05,0,0,1-.64-1.57,2.09,2.09,0,0,1,.64-1.58,3.53,3.53,0,0,1,2-.81l2.17-.31v-.21a2.23,2.23,0,0,0-.48-1.49,1.67,1.67,0,0,0-1.26-.47,3.1,3.1,0,0,0-1.18.22,3.37,3.37,0,0,0-1,.69l-.56-.58a4.08,4.08,0,0,1,1.29-.87,4.17,4.17,0,0,1,1.53-.28,2.58,2.58,0,0,1,2,.71,3,3,0,0,1,.67,2.1Zm-.94-3.19v-.74l-1.95.28a3.12,3.12,0,0,0-1.46.51,1.29,1.29,0,0,0-.43,1.06,1.36,1.36,0,0,0,.41,1.06,1.52,1.52,0,0,0,1.1.4,2.15,2.15,0,0,0,1.68-.72A2.68,2.68,0,0,0,562,491.43Z" transform="translate(-100.96 -213.21)"/><path class="cls-3" d="M570.43,487.11l-2.53,3.81,2.46,3.7h-1.13l-1.54-2.5-.16-.26-.19-.33h0c-.06.09-.11.18-.17.26a3.64,3.64,0,0,1-.2.33l-1.58,2.5h-1.1l2.53-3.68-2.46-3.83h1.1l1.56,2.62a3.49,3.49,0,0,1,.18.31,3.49,3.49,0,0,0,.18.31h0l.18-.31.18-.29,1.63-2.64Z" transform="translate(-100.96 -213.21)"/><path class="cls-3" d="M574.82,494.79a3.35,3.35,0,0,1-2.63-1.07,4,4,0,0,1-1-2.79,4.08,4.08,0,0,1,1-2.94,3.6,3.6,0,0,1,2.71-1.07,3.27,3.27,0,0,1,2.58,1.05,4.15,4.15,0,0,1,.94,2.88,4.06,4.06,0,0,1-1,2.86A3.41,3.41,0,0,1,574.82,494.79Zm0-.81a2.36,2.36,0,0,0,1.94-.82,4.19,4.19,0,0,0,0-4.61,2.37,2.37,0,0,0-1.93-.81,2.49,2.49,0,0,0-2,.84,3.42,3.42,0,0,0-.73,2.33,3.31,3.31,0,0,0,.72,2.24A2.5,2.5,0,0,0,574.87,494Z" transform="translate(-100.96 -213.21)"/><path class="cls-3" d="M580.2,494.62h-1.28l3.74-3.86-3.57-3.65h1.21l3.35,3.55h0v-3.55h.91v3.55h0l3.34-3.55h1.21l-3.57,3.65,3.75,3.86h-1.3l-3.43-3.7h0v3.7h-.91v-3.7h0Z" transform="translate(-100.96 -213.21)"/><path class="cls-3" d="M590,496.62v-2.83h.7a6.31,6.31,0,0,0,.8-2.12,14.47,14.47,0,0,0,.28-3v-1.55h4.51v6.68h1.13v2.83h-.82v-2h-5.78v2Zm5.35-2.83v-5.87h-2.68v.82a16,16,0,0,1-.25,2.89,7.37,7.37,0,0,1-.72,2.16Z" transform="translate(-100.96 -213.21)"/><path class="cls-3" d="M604.87,491h-5.43a3.18,3.18,0,0,0,.71,2.24A2.52,2.52,0,0,0,602,494a3.56,3.56,0,0,0,1.06-.17,3.62,3.62,0,0,0,1-.54l.46.67a4.73,4.73,0,0,1-1.26.65,4.85,4.85,0,0,1-1.41.2,3.34,3.34,0,0,1-2.5-1,4,4,0,0,1-1-2.94,4.24,4.24,0,0,1,.95-2.84,3.08,3.08,0,0,1,2.47-1.12,2.68,2.68,0,0,1,2.21,1,4.11,4.11,0,0,1,.78,2.66Zm-1-.8a2.9,2.9,0,0,0-.57-1.82,1.83,1.83,0,0,0-1.48-.65,2.19,2.19,0,0,0-1.61.65,3,3,0,0,0-.78,1.82Z" transform="translate(-100.96 -213.21)"/><path class="cls-3" d="M606.7,494.62v-7.51h.93v3.22h4.13v-3.22h.94v7.51h-.94v-3.46h-4.13v3.46Z" transform="translate(-100.96 -213.21)"/><path class="cls-3" d="M615.12,494.62v-7.51H616v6.16l.14-.24a2.3,2.3,0,0,1,.15-.23l4-5.69h.93v7.51h-.91v-6.18l-.14.25-.15.24-4,5.69Z" transform="translate(-100.96 -213.21)"/><path class="cls-3" d="M623,494.62l1.1-2.06a3.5,3.5,0,0,1,.53-.74,1.66,1.66,0,0,1,.62-.44,2.28,2.28,0,0,1-1.42-.66,2.26,2.26,0,0,1,.19-3,3,3,0,0,1,2-.57h2.62v7.51h-1v-3h-1.06a1.34,1.34,0,0,0-.85.3,2.68,2.68,0,0,0-.7.94l-.91,1.79Zm4.65-6.71H626a1.94,1.94,0,0,0-1.25.37,1.28,1.28,0,0,0-.44,1,1.36,1.36,0,0,0,.44,1.09,1.79,1.79,0,0,0,1.24.38h1.67Z" transform="translate(-100.96 -213.21)"/><path class="cls-3" d="M634.38,494.23l.41-.7a2.63,2.63,0,0,0,.79.34,3.84,3.84,0,0,0,.91.11,2.44,2.44,0,0,0,1.88-.76,3.12,3.12,0,0,0,.75-2h-3.44v-.82h3.43a3,3,0,0,0-.75-1.91,2.4,2.4,0,0,0-1.86-.74,4.25,4.25,0,0,0-1,.1,3.38,3.38,0,0,0-.75.28l-.34-.71a4,4,0,0,1,1-.37,4.7,4.7,0,0,1,1.08-.12,3.38,3.38,0,0,1,2.63,1.05,4.1,4.1,0,0,1,1,2.85,4.18,4.18,0,0,1-1,2.9,3.35,3.35,0,0,1-2.63,1.07,3.9,3.9,0,0,1-1.08-.13A4.34,4.34,0,0,1,634.38,494.23Z" transform="translate(-100.96 -213.21)"/><path class="cls-3" d="M647.3,494.62h-.94v-6.7h-3v2.55a13.65,13.65,0,0,1-.17,2.53,2.5,2.5,0,0,1-.59,1.3,1.39,1.39,0,0,1-.53.36,2,2,0,0,1-.7.11l-.28,0-.25-.05.16-.8.14,0h.18a1.25,1.25,0,0,0,.36-.05.89.89,0,0,0,.29-.2,1.93,1.93,0,0,0,.39-1,16,16,0,0,0,.12-2.28v-3.26h4.78Z" transform="translate(-100.96 -213.21)"/><path class="cls-3" d="M655.59,491h-5.43a3.18,3.18,0,0,0,.72,2.24,2.5,2.5,0,0,0,1.87.73,3.58,3.58,0,0,0,2.11-.71l.47.67a4.93,4.93,0,0,1-1.27.65,4.85,4.85,0,0,1-1.41.2,3.34,3.34,0,0,1-2.5-1,4.08,4.08,0,0,1-1-2.94,4.24,4.24,0,0,1,1-2.84,3.08,3.08,0,0,1,2.47-1.12,2.68,2.68,0,0,1,2.21,1,4.11,4.11,0,0,1,.78,2.66Zm-1-.8a2.9,2.9,0,0,0-.56-1.82,1.85,1.85,0,0,0-1.49-.65,2.19,2.19,0,0,0-1.61.65,3,3,0,0,0-.78,1.82Z" transform="translate(-100.96 -213.21)"/><path class="cls-3" d="M658.36,494.62h-.94v-7.51h.94v3.49h0l3.29-3.49h1.22l-3.52,3.63,3.8,3.88h-1.33L658.39,491h0Z" transform="translate(-100.96 -213.21)"/><path class="cls-3" d="M666.6,494.62h-.94v-6.69h-2.31v-.82h5.56v.82H666.6Z" transform="translate(-100.96 -213.21)"/><path class="cls-3" d="M671.24,493.41h0v4.66h-.94v-11h.94v1.43h0a2.92,2.92,0,0,1,1.13-1.2,3,3,0,0,1,1.58-.42,2.75,2.75,0,0,1,2.24,1,4.15,4.15,0,0,1,.81,2.69,4.64,4.64,0,0,1-.92,3,3,3,0,0,1-2.46,1.15,2.73,2.73,0,0,1-1.39-.34A2.69,2.69,0,0,1,671.24,493.41Zm0-2.91v1a2.53,2.53,0,0,0,.66,1.76,2.19,2.19,0,0,0,1.7.73,2.12,2.12,0,0,0,1.79-.91,4.06,4.06,0,0,0,.68-2.46,3.26,3.26,0,0,0-.62-2.1,2,2,0,0,0-1.67-.77,2.31,2.31,0,0,0-1.86.8A3,3,0,0,0,671.21,490.5Z" transform="translate(-100.96 -213.21)"/><path class="cls-3" d="M682,494.79a3.35,3.35,0,0,1-2.63-1.07,4,4,0,0,1-1-2.79,4.08,4.08,0,0,1,1-2.94,3.6,3.6,0,0,1,2.71-1.07,3.27,3.27,0,0,1,2.58,1.05,4.15,4.15,0,0,1,.94,2.88,4.06,4.06,0,0,1-1,2.86A3.42,3.42,0,0,1,682,494.79Zm0-.81a2.36,2.36,0,0,0,1.94-.82,4.25,4.25,0,0,0,0-4.61,2.37,2.37,0,0,0-1.93-.81,2.49,2.49,0,0,0-2,.84,3.42,3.42,0,0,0-.73,2.33,3.31,3.31,0,0,0,.72,2.24A2.5,2.5,0,0,0,682,494Z" transform="translate(-100.96 -213.21)"/><path class="cls-3" d="M687.49,494.62v-7.51h.94v3.22h4.13v-3.22h.94v7.51h-.94v-3.46h-4.13v3.46Z" transform="translate(-100.96 -213.21)"/><path class="cls-3" d="M701.17,494.62h-.94v-1.35h0a2.83,2.83,0,0,1-1,1.13,2.67,2.67,0,0,1-1.43.39,2.35,2.35,0,0,1-1.7-.61,2.05,2.05,0,0,1-.64-1.57,2.09,2.09,0,0,1,.64-1.58,3.56,3.56,0,0,1,2-.81l2.17-.31v-.21a2.23,2.23,0,0,0-.48-1.49,1.67,1.67,0,0,0-1.26-.47,3.1,3.1,0,0,0-1.18.22,3.21,3.21,0,0,0-1,.69l-.57-.58a4.08,4.08,0,0,1,1.29-.87,4.17,4.17,0,0,1,1.53-.28,2.58,2.58,0,0,1,2,.71,3,3,0,0,1,.67,2.1Zm-.94-3.19v-.74l-2,.28a3,3,0,0,0-1.45.51,1.27,1.27,0,0,0-.44,1.06,1.36,1.36,0,0,0,.41,1.06,1.52,1.52,0,0,0,1.1.4,2.15,2.15,0,0,0,1.68-.72A2.68,2.68,0,0,0,700.23,491.43Z" transform="translate(-100.96 -213.21)"/><path class="cls-3" d="M489.6,511.11l.42-.78a4.9,4.9,0,0,0,1.13.44,5.9,5.9,0,0,0,1.32.13,3.76,3.76,0,0,0,2.84-1.11,4.49,4.49,0,0,0,1.16-3h-4.91v-.89h4.9a4.51,4.51,0,0,0-1.2-3,3.72,3.72,0,0,0-2.79-1.11,6.32,6.32,0,0,0-1.33.13,6.4,6.4,0,0,0-1.11.33l-.33-.84a8.67,8.67,0,0,1,1.38-.4,8.77,8.77,0,0,1,1.41-.11,4.76,4.76,0,0,1,3.66,1.5,5.57,5.57,0,0,1,1.35,3.91,5.64,5.64,0,0,1-1.37,4,4.76,4.76,0,0,1-3.66,1.48,7.51,7.51,0,0,1-1.45-.14A5.85,5.85,0,0,1,489.6,511.11Z" transform="translate(-100.96 -213.21)"/><path class="cls-3" d="M504.74,511.62h-.93v-6.7h-3v2.55a13.49,13.49,0,0,1-.18,2.53,2.5,2.5,0,0,1-.58,1.3,1.47,1.47,0,0,1-.53.36,2.06,2.06,0,0,1-.7.11l-.29,0-.25-.05.16-.8.15,0h.17a1.27,1.27,0,0,0,.37-.05,1,1,0,0,0,.29-.2,1.93,1.93,0,0,0,.39-1,18,18,0,0,0,.11-2.28v-3.26h4.78Z" transform="translate(-100.96 -213.21)"/><path class="cls-3" d="M513,508H507.6a3.18,3.18,0,0,0,.72,2.24,2.52,2.52,0,0,0,1.88.73,3.52,3.52,0,0,0,2.1-.71l.47.67a4.73,4.73,0,0,1-1.26.65,4.85,4.85,0,0,1-1.41.2,3.34,3.34,0,0,1-2.5-1,4,4,0,0,1-1-2.94,4.24,4.24,0,0,1,.95-2.84,3.06,3.06,0,0,1,2.47-1.12,2.68,2.68,0,0,1,2.21,1,4.11,4.11,0,0,1,.78,2.66Zm-1-.8a2.9,2.9,0,0,0-.57-1.82,1.83,1.83,0,0,0-1.48-.65,2.19,2.19,0,0,0-1.61.65,3,3,0,0,0-.78,1.82Z" transform="translate(-100.96 -213.21)"/><path class="cls-3" d="M515.81,511.62h-.94v-7.51h.94v3.49h0l3.29-3.49h1.22l-3.53,3.63,3.81,3.88h-1.34L515.84,508h0Z" transform="translate(-100.96 -213.21)"/><path class="cls-3" d="M524,511.62h-.93v-6.69H520.8v-.82h5.55v.82H524Z" transform="translate(-100.96 -213.21)"/><path class="cls-3" d="M528.69,510.41h0v4.66h-.94v-11h.94v1.43h0a2.9,2.9,0,0,1,1.12-1.2,3,3,0,0,1,1.58-.42,2.75,2.75,0,0,1,2.25,1,4.15,4.15,0,0,1,.81,2.69,4.7,4.7,0,0,1-.92,3,3,3,0,0,1-2.47,1.15,2.55,2.55,0,0,1-2.37-1.38Zm0-2.91v1a2.57,2.57,0,0,0,.65,1.76A2.22,2.22,0,0,0,531,511a2.13,2.13,0,0,0,1.79-.91,4.05,4.05,0,0,0,.67-2.46,3.21,3.21,0,0,0-.62-2.1,2,2,0,0,0-1.67-.77,2.34,2.34,0,0,0-1.86.8A3,3,0,0,0,528.66,507.5Z" transform="translate(-100.96 -213.21)"/><path class="cls-3" d="M539.42,511.79a3.37,3.37,0,0,1-2.64-1.07,4,4,0,0,1-1-2.79,4.11,4.11,0,0,1,1-2.94,3.64,3.64,0,0,1,2.72-1.07,3.28,3.28,0,0,1,2.58,1.05,4.15,4.15,0,0,1,.94,2.88,4.1,4.1,0,0,1-1,2.86A3.42,3.42,0,0,1,539.42,511.79Zm.05-.81a2.36,2.36,0,0,0,1.94-.82,4.25,4.25,0,0,0,0-4.61,2.38,2.38,0,0,0-1.93-.81,2.49,2.49,0,0,0-2,.84,3.42,3.42,0,0,0-.73,2.33,3.31,3.31,0,0,0,.72,2.24A2.5,2.5,0,0,0,539.47,511Z" transform="translate(-100.96 -213.21)"/><path class="cls-3" d="M544.94,511.62v-7.51h.94v3.22H550v-3.22h.94v7.51H550v-3.46h-4.12v3.46Z" transform="translate(-100.96 -213.21)"/><path class="cls-3" d="M553.36,511.62v-7.51h.94v3.22h4.13v-3.22h.94v7.51h-.94v-3.46H554.3v3.46Z" transform="translate(-100.96 -213.21)"/><path class="cls-3" d="M564.88,511.79a3.37,3.37,0,0,1-2.64-1.07,4,4,0,0,1-1-2.79,4.11,4.11,0,0,1,1-2.94,3.64,3.64,0,0,1,2.72-1.07,3.28,3.28,0,0,1,2.58,1.05,4.15,4.15,0,0,1,.94,2.88,4.1,4.1,0,0,1-1,2.86A3.42,3.42,0,0,1,564.88,511.79Zm0-.81a2.36,2.36,0,0,0,1.94-.82,4.25,4.25,0,0,0,0-4.61,2.38,2.38,0,0,0-1.93-.81,2.49,2.49,0,0,0-2,.84,3.42,3.42,0,0,0-.73,2.33,3.31,3.31,0,0,0,.72,2.24A2.5,2.5,0,0,0,564.93,511Z" transform="translate(-100.96 -213.21)"/><path class="cls-3" d="M576.29,508h-5.44a3.18,3.18,0,0,0,.72,2.24,2.52,2.52,0,0,0,1.88.73,3.61,3.61,0,0,0,1.06-.17,3.57,3.57,0,0,0,1-.54l.47.67a4.26,4.26,0,0,1-2.68.85,3.36,3.36,0,0,1-2.5-1,4,4,0,0,1-1-2.94,4.19,4.19,0,0,1,1-2.84,3.06,3.06,0,0,1,2.46-1.12,2.66,2.66,0,0,1,2.21,1,4.11,4.11,0,0,1,.79,2.66Zm-1-.8a2.9,2.9,0,0,0-.57-1.82,1.85,1.85,0,0,0-1.49-.65,2.17,2.17,0,0,0-1.6.65,3.09,3.09,0,0,0-.79,1.82Z" transform="translate(-100.96 -213.21)"/><path class="cls-3" d="M585.31,511.79a3.37,3.37,0,0,1-2.63-1.07,4,4,0,0,1-1-2.79,4.08,4.08,0,0,1,1-2.94,3.62,3.62,0,0,1,2.72-1.07A3.3,3.3,0,0,1,588,505a4.19,4.19,0,0,1,.94,2.88,4.06,4.06,0,0,1-1,2.86A3.41,3.41,0,0,1,585.31,511.79Zm.05-.81a2.4,2.4,0,0,0,1.95-.82,4.25,4.25,0,0,0,0-4.61,2.39,2.39,0,0,0-1.93-.81,2.46,2.46,0,0,0-2,.84,3.43,3.43,0,0,0-.74,2.33,3.27,3.27,0,0,0,.73,2.24A2.48,2.48,0,0,0,585.36,511Z" transform="translate(-100.96 -213.21)"/><path class="cls-3" d="M596.58,500.44l.15.87a1.88,1.88,0,0,1-.58.26,8.92,8.92,0,0,1-1.2.26,7.78,7.78,0,0,0-1.56.37,2.49,2.49,0,0,0-.83.54,2.94,2.94,0,0,0-.68,1.18,7,7,0,0,0-.32,1.79h0a2.84,2.84,0,0,1,1.07-1,3.21,3.21,0,0,1,1.58-.38,2.84,2.84,0,0,1,2.35,1,4.17,4.17,0,0,1,.82,2.73,4,4,0,0,1-.91,2.73,3.16,3.16,0,0,1-2.5,1,3,3,0,0,1-2.55-1.23,5.64,5.64,0,0,1-.9-3.39,12.18,12.18,0,0,1,.34-3.17,4.22,4.22,0,0,1,1-1.87,3.31,3.31,0,0,1,1.18-.75,9.88,9.88,0,0,1,1.7-.44c.56-.1,1-.19,1.25-.26A2.34,2.34,0,0,0,596.58,500.44Zm-5,6.28c0,.13,0,.27,0,.43v.48a4.06,4.06,0,0,0,.67,2.39,2.12,2.12,0,0,0,1.85,1,2.16,2.16,0,0,0,1.76-.79,3.27,3.27,0,0,0,.64-2.12,3.4,3.4,0,0,0-.63-2.19,2.15,2.15,0,0,0-1.77-.78,2.52,2.52,0,0,0-1.49.44A3.23,3.23,0,0,0,591.54,506.72Z" transform="translate(-100.96 -213.21)"/><path class="cls-3" d="M604.62,511.62h-.94v-6.7h-2.95v2.55a13.49,13.49,0,0,1-.18,2.53,2.5,2.5,0,0,1-.59,1.3,1.39,1.39,0,0,1-.53.36,2,2,0,0,1-.7.11l-.28,0-.25-.05.16-.8.14,0h.18a1.25,1.25,0,0,0,.36-.05.89.89,0,0,0,.29-.2,1.93,1.93,0,0,0,.39-1,16,16,0,0,0,.12-2.28v-3.26h4.78Z" transform="translate(-100.96 -213.21)"/><path class="cls-3" d="M612.28,511.62h-.94v-1.35h0a2.9,2.9,0,0,1-1,1.13,2.67,2.67,0,0,1-1.43.39,2.33,2.33,0,0,1-1.7-.61,2.05,2.05,0,0,1-.64-1.57,2.09,2.09,0,0,1,.64-1.58,3.53,3.53,0,0,1,2-.81l2.17-.31v-.21a2.23,2.23,0,0,0-.48-1.49,1.67,1.67,0,0,0-1.26-.47,3.1,3.1,0,0,0-1.18.22,3.37,3.37,0,0,0-1,.69l-.56-.58a4.08,4.08,0,0,1,1.29-.87,4.17,4.17,0,0,1,1.53-.28,2.58,2.58,0,0,1,2,.71,3,3,0,0,1,.67,2.1Zm-.94-3.19v-.74l-2,.28a3.08,3.08,0,0,0-1.46.51,1.29,1.29,0,0,0-.43,1.06,1.36,1.36,0,0,0,.41,1.06,1.52,1.52,0,0,0,1.1.4,2.15,2.15,0,0,0,1.68-.72A2.68,2.68,0,0,0,611.34,508.43Z" transform="translate(-100.96 -213.21)"/><path class="cls-3" d="M615.5,511.62h-.94v-7.51h.94v3.49h0l3.29-3.49H620l-3.52,3.63,3.8,3.88H619L615.52,508h0Z" transform="translate(-100.96 -213.21)"/><path class="cls-3" d="M624.33,511.79a3.37,3.37,0,0,1-2.63-1.07,4,4,0,0,1-1-2.79,4.08,4.08,0,0,1,1-2.94,3.62,3.62,0,0,1,2.72-1.07A3.3,3.3,0,0,1,627,505a4.19,4.19,0,0,1,.94,2.88,4.06,4.06,0,0,1-1,2.86A3.41,3.41,0,0,1,624.33,511.79Zm0-.81a2.4,2.4,0,0,0,2-.82,4.25,4.25,0,0,0,0-4.61,2.39,2.39,0,0,0-1.93-.81,2.5,2.5,0,0,0-2,.84,3.48,3.48,0,0,0-.73,2.33,3.27,3.27,0,0,0,.73,2.24A2.48,2.48,0,0,0,624.38,511Z" transform="translate(-100.96 -213.21)"/><rect class="cls-3" x="201" y="200.57" width="110.76" height="0.85"/><rect class="cls-3" x="352.42" y="284.47" width="252.4" height="0.85"/></svg>