<svg id="Слой_1" data-name="Слой 1" xmlns="http://www.w3.org/2000/svg" viewBox="0 0 1350.97 285.32"><defs><style>.cls-1{fill:#fff;}.cls-2{fill:#1d1d1b;}</style></defs><path class="cls-1" d="M276.14,549.76l17.12-32.38q14.34,8.63,25.08,11.74a80.59,80.59,0,0,0,22.57,3.12q15.25,0,22.89-6t7.63-16.79q0-9.95-6.1-15.46t-22.17-9.35q-31.59-7.44-45.92-20.77t-14.33-37.1q0-24,18.51-40.81t52-16.79a118.38,118.38,0,0,1,27.41,3.19,116.18,116.18,0,0,1,25.81,9.42l-15.79,32.65a95,95,0,0,0-20.64-8.83,68.28,68.28,0,0,0-18.25-2.72q-13.14,0-20.5,5.24t-7.37,15.07q0,8.89,6.7,13.67t24.09,9q30.66,7.17,44.33,21t13.67,38.95q0,26.81-18.85,43.47T339.45,566a135.25,135.25,0,0,1-33-4.24A118.7,118.7,0,0,1,276.14,549.76Z" transform="translate(-276.14 -362.57)"/><path class="cls-1" d="M589.36,552.68a139.5,139.5,0,0,1-29.2,10.15A142.81,142.81,0,0,1,529.5,566q-44.46,0-69.88-25t-25.41-71.14q0-43.53,27.8-72.13t73.2-28.6a150.42,150.42,0,0,1,27.67,2.32,138,138,0,0,1,25,7.37L575.15,412.4a93.33,93.33,0,0,0-18.77-5.71A108.11,108.11,0,0,0,536.53,405a57.46,57.46,0,0,0-41.34,16.73q-17.31,16.71-17.32,45.39,0,29.32,15.2,45.92t41.61,16.59a82.43,82.43,0,0,0,18-2.39,95.38,95.38,0,0,0,21.3-7.83Z" transform="translate(-276.14 -362.57)"/><path class="cls-1" d="M599.31,562.63l69.41-190.31h49.11l68.08,190.31H740.52l-13.27-40.48H657.31l-13.14,40.48Zm67.16-73h51l-21.5-67.29c-.89-2.48-1.57-4.67-2.06-6.57a56.84,56.84,0,0,1-1.26-7.23h-1.06c-.44,2.56-.91,4.86-1.39,6.9s-1.09,4.16-1.8,6.37Z" transform="translate(-276.14 -362.57)"/><path class="cls-1" d="M924.87,562.63H812.59V372.32H854v156.6h70.87Z" transform="translate(-276.14 -362.57)"/><path class="cls-1" d="M1066.61,562.63H953.4V372.32h108.83v33.84H994.81V450h62.78V483.8H994.81v45.12h71.8Z" transform="translate(-276.14 -362.57)"/><path class="cls-1" d="M1238.62,497.87h-51.5V549.1h-26V497.87h-51.63V471.59h51.63V420h26v51.63h51.5Z" transform="translate(-276.14 -362.57)"/><path class="cls-1" d="M670.69,646.67,697.91,574h13.58l27,72.69H725.28l-6.23-17.54H689.9l-6,17.54ZM693,619.2H715.8l-10.08-28.9c-.24-.74-.44-1.5-.61-2.26s-.34-1.69-.51-2.81h-.3c-.17,1-.35,1.91-.54,2.69a19.34,19.34,0,0,1-.68,2.28Z" transform="translate(-276.14 -362.57)"/><path class="cls-1" d="M788.75,646.67H748.5V574h12.07v62.45h28.18Z" transform="translate(-276.14 -362.57)"/><path class="cls-1" d="M853,641.45a44.83,44.83,0,0,1-11.66,4.79,53.93,53.93,0,0,1-13.63,1.65q-16.57,0-26.36-9.38t-9.79-27.12q0-17.24,10.47-27.93t27.86-10.7A56,56,0,0,1,841.78,574a55.32,55.32,0,0,1,11.3,3.88l-4.2,9.48a46.55,46.55,0,0,0-9.25-3.17,45.38,45.38,0,0,0-9.76-1q-11.42,0-18.51,7.1t-7.09,20.43q0,13.49,6.54,20.15t17.84,6.67a33,33,0,0,0,6.74-.64A21.69,21.69,0,0,0,841,635V617.32H825.66V607.18H853Z" transform="translate(-276.14 -362.57)"/><path class="cls-1" d="M898.61,647.89q-15.57,0-25.09-10.16T864,611.24q0-17.38,9.71-27.94t26.08-10.54q15.32,0,24.69,10.16t9.38,26.7q0,17.48-9.66,27.88T898.61,647.89Zm.15-10.55q10.35,0,16.38-7t6-19.67q0-13-5.86-20.13t-16-7.14a20.28,20.28,0,0,0-16.4,7.45q-6.21,7.46-6.21,19.62T882.77,630A19.82,19.82,0,0,0,898.76,637.34Z" transform="translate(-276.14 -362.57)"/><path class="cls-1" d="M1002.08,646.67H988.19L977,627.26q-3-5.13-5.42-7a9.77,9.77,0,0,0-5.73-2.06h-6.59v28.49H947.17V574H970.8q11.21,0,17.64,5.07t6.44,15.1a19.89,19.89,0,0,1-4.13,12.73,23.74,23.74,0,0,1-11.28,7.65v.21a14.79,14.79,0,0,1,4.91,3.52,30.29,30.29,0,0,1,4.16,5.65Zm-42.84-62.91v24.59h9.53a13.26,13.26,0,0,0,9.66-3.7,12.61,12.61,0,0,0,3.77-9.38q0-5.43-3.37-8.47t-9.86-3Z" transform="translate(-276.14 -362.57)"/><path class="cls-1" d="M1024,646.67h-12.22V574H1024Z" transform="translate(-276.14 -362.57)"/><path class="cls-1" d="M1088.56,584.22h-20.83v62.45h-12.12V584.22h-20.78V574h53.73Z" transform="translate(-276.14 -362.57)"/><path class="cls-1" d="M1157.71,646.67h-12.12V615.14h-34.22v31.53h-12.06V574h12.06v30.57h34.22V574h12.12Z" transform="translate(-276.14 -362.57)"/><path class="cls-1" d="M1253.78,646.67h-12V600.29q0-3.15.18-6.87c.12-2.49.28-5.13.48-7.94h-.3q-.62,2.89-1.14,4.95a27.44,27.44,0,0,1-1,3.27l-21.35,53h-8.31l-21.44-52.52c-.27-.74-.6-1.84-1-3.29s-.81-3.25-1.24-5.38h-.31q.3,3.66.41,7.74c.06,2.72.1,5.58.1,8.59v44.86h-11.15V574h17l18.91,47.24c.74,1.8,1.36,3.44,1.85,4.95a40.48,40.48,0,0,1,1.14,4.18h.3q.91-2.9,1.73-5.22c.54-1.56,1-2.91,1.52-4.06L1237.35,574h16.43Z" transform="translate(-276.14 -362.57)"/><rect class="cls-1" x="1066.86" width="284.11" height="284.11" rx="48.58"/><rect class="cls-2" x="1411.78" y="462.83" width="58.91" height="171.2" rx="14.55" transform="translate(533.79 -1221.04) rotate(45)"/><path class="cls-2" d="M1603.53,409.4l-35.89,134a19,19,0,0,1-31.78,8.52l-98.07-98.07a19,19,0,0,1,8.52-31.78l134-35.89A19,19,0,0,1,1603.53,409.4Z" transform="translate(-276.14 -362.57)"/><rect class="cls-2" x="1284.25" y="238" width="39.13" height="9.82" rx="2.8"/><rect class="cls-2" x="1560.39" y="600.57" width="39.13" height="9.82" rx="2.8" transform="translate(698.34 1822.87) rotate(-90)"/></svg>